<svg width="32" height="32" viewBox="0 0 32 32" fill="none" xmlns="http://www.w3.org/2000/svg">
<path d="M24.2218 8.22183C28.5176 12.5176 28.5176 19.4824 24.2218 23.7782C19.9261 28.0739 12.9612 28.0739 8.66548 23.7782C4.36971 19.4824 4.36971 12.5176 8.66548 8.22183L16.4437 0.443651L24.2218 8.22183Z" fill="#C2C8CC"/>
<path d="M22.3431 10.3431C25.4673 13.4673 25.4673 18.5327 22.3431 21.6569C19.219 24.781 14.1536 24.781 11.0294 21.6569C7.90524 18.5327 7.90524 13.4673 11.0294 10.3431L16.6863 4.68629L22.3431 10.3431Z" fill="#D0D5D9"/>
<path d="M19.1716 13.1716C20.7337 14.7337 20.7337 17.2663 19.1716 18.8284C17.6095 20.3905 15.0768 20.3905 13.5147 18.8284C11.9526 17.2663 11.9526 14.7337 13.5147 13.1716L16.3431 10.3431L19.1716 13.1716Z" fill="#E6EDF3"/>
</svg>
