<svg width="18" height="18" viewBox="0 0 18 18" fill="none" xmlns="http://www.w3.org/2000/svg">
<g opacity="0.3">
<path d="M8.86789 8.80683C8.88685 8.80683 8.90582 8.80811 8.92478 8.80843C11.3272 8.77693 13.2723 6.81518 13.2723 4.40566C13.2723 1.97622 11.296 0 8.8666 0C6.43715 0 4.46094 1.97622 4.46094 4.40566C4.46094 6.8155 6.40662 8.77758 8.80938 8.80876C8.82899 8.80876 8.84828 8.80715 8.86821 8.80715L8.86789 8.80683Z" fill="#354755"/>
<path d="M8.92351 9.451C8.9039 9.451 8.88462 9.4539 8.86501 9.4539C8.8454 9.4539 8.82676 9.45133 8.80715 9.451C4.04983 9.48251 0.168756 13.2758 0 18H17.7229C17.5542 13.2752 13.6767 9.48154 8.92351 9.451Z" fill="#354755"/>
</g>
</svg>
