<svg width="26" height="26" viewBox="0 0 26 26" fill="none" xmlns="http://www.w3.org/2000/svg">
<g opacity="0.6">
<path d="M15.1533 18.5829L15.1615 18.5877L15.1699 18.5923C15.1843 18.6001 15.1993 18.6083 15.2148 18.6169C15.4966 18.7717 15.9641 19.0285 16.5042 18.9886C16.6546 18.9801 16.7701 18.9246 16.8401 18.8812C17.3219 18.7398 17.6811 18.3893 17.9014 18.1691C18.4387 17.6597 19.0576 17.2023 19.731 16.8251C19.8688 16.7485 19.957 16.701 20.0385 16.6702C20.1074 16.6441 20.1411 16.6426 20.1567 16.6437C20.2419 16.6544 20.3456 16.7061 20.5947 16.8614C21.7701 17.6458 22.859 18.5401 23.8347 19.5434C24.532 20.2699 25.0868 20.9514 25.2231 21.7466L25.2237 21.7497C25.3564 22.5019 25.0688 23.3399 24.4983 23.9341L24.4983 23.934L24.4896 23.9434C23.9092 24.5722 23.1152 24.957 22.2155 25.1687C20.4259 25.5897 18.5128 25.2296 16.6498 24.5804C11.376 22.7286 6.99512 18.8155 3.78277 14.1534L3.78111 14.151C2.41769 12.1911 1.28543 10.0766 0.818656 7.82661C0.604461 6.76755 0.542292 4.83539 0.946313 3.21591C1.14811 2.40703 1.45174 1.73604 1.85633 1.28718C2.23848 0.863221 2.72052 0.62196 3.38094 0.652606C4.00321 0.700683 4.61645 0.981849 5.25216 1.36881L5.254 1.36992C6.56607 2.16263 7.71766 3.23113 8.62325 4.46604L8.62325 4.46605L8.62511 4.46855C8.89127 4.82787 9.11489 5.21157 9.23335 5.58139C9.35042 5.94688 9.35258 6.2565 9.2421 6.51994L9.23881 6.52779L9.23572 6.53573C9.10748 6.86549 8.82484 7.11656 8.38379 7.50833C8.36806 7.5223 8.35213 7.53646 8.33599 7.5508C7.92962 7.91202 7.35581 8.42875 7.20762 9.22272C7.04021 10.0709 7.46618 10.8421 7.78587 11.3376C9.57857 14.3217 12.1435 16.8247 15.1533 18.5829Z" stroke="#354755" stroke-width="1.3"/>
</g>
</svg>
