<svg width="28" height="24" viewBox="0 0 28 24" fill="none" xmlns="http://www.w3.org/2000/svg">
<g opacity="0.6">
<mask id="path-1-inside-1_866_2642" fill="white">
<path fill-rule="evenodd" clip-rule="evenodd" d="M4 0.35498C1.79086 0.35498 0 2.14584 0 4.35498V13.3599C0 15.569 1.79087 17.3599 4 17.3599H10.6811L14.0101 23.7026L17.3392 17.3599H23.0834C25.2925 17.3599 27.0834 15.569 27.0834 13.3599V4.35498C27.0834 2.14584 25.2925 0.35498 23.0834 0.35498H4Z"/>
</mask>
<path d="M10.6811 17.3599L11.8321 16.7557L11.4669 16.0599H10.6811V17.3599ZM14.0101 23.7026L12.8591 24.3068L14.0101 26.4999L15.1612 24.3068L14.0101 23.7026ZM17.3392 17.3599V16.0599H16.5533L16.1881 16.7557L17.3392 17.3599ZM1.3 4.35498C1.3 2.86381 2.50883 1.65498 4 1.65498V-0.945019C1.07289 -0.945019 -1.3 1.42787 -1.3 4.35498H1.3ZM1.3 13.3599V4.35498H-1.3V13.3599H1.3ZM4 16.0599C2.50883 16.0599 1.3 14.8511 1.3 13.3599H-1.3C-1.3 16.287 1.0729 18.6599 4 18.6599V16.0599ZM10.6811 16.0599H4V18.6599H10.6811V16.0599ZM15.1612 23.0985L11.8321 16.7557L9.52998 17.9641L12.8591 24.3068L15.1612 23.0985ZM16.1881 16.7557L12.8591 23.0985L15.1612 24.3068L18.4903 17.9641L16.1881 16.7557ZM23.0834 16.0599H17.3392V18.6599H23.0834V16.0599ZM25.7834 13.3599C25.7834 14.8511 24.5746 16.0599 23.0834 16.0599V18.6599C26.0105 18.6599 28.3834 16.287 28.3834 13.3599H25.7834ZM25.7834 4.35498V13.3599H28.3834V4.35498H25.7834ZM23.0834 1.65498C24.5746 1.65498 25.7834 2.86381 25.7834 4.35498H28.3834C28.3834 1.42787 26.0105 -0.945019 23.0834 -0.945019V1.65498ZM4 1.65498H23.0834V-0.945019H4V1.65498Z" fill="#354755" mask="url(#path-1-inside-1_866_2642)"/>
</g>
</svg>
