<svg width="19" height="26" viewBox="0 0 19 26" fill="none" xmlns="http://www.w3.org/2000/svg">
<path opacity="0.6" d="M16.4988 25.167L16.4927 25.1631L16.4864 25.1594L16.4832 25.1575L10.1029 20.7685L10.0787 20.7449L10.0027 20.7028C9.69216 20.5306 9.30762 20.5306 8.99709 20.7028L8.9211 20.745L8.89685 20.7686L2.55579 25.1342L2.50323 25.1671C2.31091 25.2873 2.08892 25.35 1.86247 25.35C1.54746 25.35 1.23708 25.2279 1.01364 25.0183L1.01199 25.0167C0.77739 24.7982 0.65 24.5056 0.65 24.189V2.71036C0.65 1.59092 1.59256 0.65 2.77782 0.65H16.2188C17.4077 0.65 18.35 1.59161 18.35 2.71057V24.1876C18.35 24.8103 17.8237 25.3486 17.1375 25.3486C16.9092 25.3486 16.6885 25.2865 16.4988 25.167ZM10.0502 20.7338C10.0481 20.7326 10.0484 20.7327 10.0504 20.734L10.0502 20.7338ZM10.1396 20.8043C10.1411 20.8058 10.1417 20.8063 10.1409 20.8055L10.1396 20.8043ZM8.85885 20.8056C8.85808 20.8063 8.85862 20.8058 8.86013 20.8043L8.85885 20.8056ZM8.94939 20.734C8.95141 20.7327 8.95166 20.7326 8.94961 20.7338L8.94939 20.734Z" stroke="#354755" stroke-width="1.3"/>
</svg>
