<svg width="25" height="25" viewBox="0 0 25 25" fill="none" xmlns="http://www.w3.org/2000/svg">
<path opacity="0.6" d="M10.0405 15.2678L9.93731 14.9685L9.63797 14.8652L0.894229 11.8498C0.89413 11.8498 0.89403 11.8497 0.893931 11.8497C0.753576 11.8009 0.657736 11.6725 0.650324 11.5261C0.644129 11.3779 0.728224 11.2415 0.862084 11.1807L0.593909 10.5907L0.862088 11.1807L23.5675 0.860045C23.5676 0.859966 23.5678 0.859889 23.568 0.859811C23.7056 0.797858 23.8655 0.826864 23.9727 0.933659C24.0792 1.04104 24.1078 1.2024 24.0463 1.33844C24.0463 1.33859 24.0462 1.33874 24.0461 1.3389L13.7251 24.045C13.6666 24.1737 13.5381 24.2561 13.3971 24.2561L13.3925 24.2561L13.3923 24.256L13.3808 24.2555C13.2325 24.2484 13.104 24.1513 13.0566 24.0134L13.0563 24.0126L10.0405 15.2678Z" stroke="#354755" stroke-width="1.3"/>
</svg>
